<svg id="Capa_1" data-name="Capa 1" xmlns="http://www.w3.org/2000/svg" viewBox="0 0 64 64"><defs><style>.cls-1{fill:#dbff00;}.cls-2{fill:#02251d;}</style></defs><title>portfolio-v3-favicon</title><rect class="cls-1" width="64" height="64"/><path class="cls-2" d="M48.73,29.31a8.44,8.44,0,0,0-3.81-3.78,12.94,12.94,0,0,0-5.74-1.2,13.79,13.79,0,0,0-4.06.57,13,13,0,0,0-3.34,1.54,15.92,15.92,0,0,0-3,2.3V19.56H20V48.4a3.18,3.18,0,0,1-.76,2.3,2.89,2.89,0,0,1-2.2.79H13.92v5.73a8.6,8.6,0,0,0,1.76.54c.72.15,1.44.26,2.17.34a16.52,16.52,0,0,0,2,.13A9.81,9.81,0,0,0,25.16,57a7,7,0,0,0,2.78-3.31,12.15,12.15,0,0,0,.85-4.6V38.92a8.57,8.57,0,0,1,.45-2.84,7.75,7.75,0,0,1,.44-1,6.57,6.57,0,0,1,2.45-2.59,6.73,6.73,0,0,1,3.53-.94,8.51,8.51,0,0,1,2.4.31,4.16,4.16,0,0,1,1.79,1A4.66,4.66,0,0,1,41,34.76a8.38,8.38,0,0,1,.37,2.68V58.23h8.76V36.05A14.55,14.55,0,0,0,48.73,29.31Z"/><rect class="cls-2" x="20.03" y="5.77" width="8.76" height="7.56"/></svg>